<svg width="50" height="50" viewBox="0 0 50 50" fill="none" xmlns="http://www.w3.org/2000/svg">
<g clip-path="url(#clip0_837_229)">
<path d="M41.6669 0H8.33316C6.123 0 4.00355 0.877851 2.4407 2.4407C0.877851 4.00354 0 6.12299 0 8.33315V41.6668C0 43.877 0.877851 45.9965 2.4407 47.5593C4.00355 49.1221 6.123 50 8.33316 50H41.6669C43.877 50 45.9965 49.1221 47.5593 47.5593C49.1222 45.9965 50 43.877 50 41.6668V8.33315C50 6.12299 49.1222 4.00354 47.5593 2.4407C45.9965 0.877851 43.877 0 41.6669 0ZM45.8336 41.6667C45.8336 42.7716 45.3945 43.8315 44.6129 44.6127C43.8317 45.3943 42.7718 45.8331 41.6669 45.8331H8.33317C7.22827 45.8331 6.16836 45.3943 5.38712 44.6127C4.60552 43.8315 4.16677 42.7716 4.16677 41.6667V8.33298C4.16677 7.22807 4.60552 6.16817 5.38712 5.38693C6.16836 4.60533 7.22827 4.16658 8.33317 4.16658H41.6669C42.7718 4.16658 43.8317 4.60533 44.6129 5.38693C45.3945 6.16817 45.8333 7.22807 45.8333 8.33298L45.8336 41.6667Z" fill="#BB892C"/>
<path d="M24.9999 12.5C21.6849 12.5 18.5055 13.817 16.1611 16.161C13.817 18.5055 12.5 21.6848 12.5 24.9999C12.5 28.3149 13.817 31.4943 16.1611 33.8387C18.5055 36.1828 21.6849 37.4997 24.9999 37.4997C28.315 37.4997 31.4944 36.1828 33.8388 33.8387C36.1829 31.4943 37.4999 28.3149 37.4999 24.9999C37.4999 21.6848 36.1829 18.5055 33.8388 16.161C31.4944 13.817 28.315 12.5 24.9999 12.5V12.5ZM24.9999 33.3328C22.7898 33.3328 20.6703 32.455 19.1075 30.8921C17.5446 29.3293 16.6668 27.2098 16.6668 24.9997C16.6668 22.7895 17.5446 20.6701 19.1075 19.1073C20.6703 17.5444 22.7898 16.6666 24.9999 16.6666C27.2101 16.6666 29.3295 17.5444 30.8924 19.1073C32.4552 20.6701 33.3331 22.7895 33.3331 24.9997C33.3331 27.2098 32.4552 29.3293 30.8924 30.8921C29.3295 32.455 27.2101 33.3328 24.9999 33.3328Z" fill="#BB892C"/>
<path d="M41.6663 11.4585C41.6663 13.1845 40.267 14.5835 38.5413 14.5835C36.8152 14.5835 35.4162 13.1845 35.4162 11.4585C35.4162 9.73277 36.8152 8.3335 38.5413 8.3335C40.267 8.3335 41.6663 9.73277 41.6663 11.4585Z" fill="#BB892C"/>
</g>
<defs>
<clipPath id="clip0_837_229">
<rect width="50" height="50" fill="white"/>
</clipPath>
</defs>
</svg>
