<svg width="36" height="36" viewBox="0 0 36 36" fill="none" xmlns="http://www.w3.org/2000/svg">
<path d="M21.24 10.03L24.97 6.53001C24.97 6.53001 24.97 6.53001 24.97 6.52001C25 6.49001 25.02 6.46001 25.04 6.43001C25.04 6.42001 25.06 6.40001 25.07 6.39001C25.07 6.39001 25.07 6.39001 25.07 6.38001C25.09 6.35001 25.1 6.31001 25.11 6.27001C25.11 6.27001 25.11 6.25001 25.11 6.24001C25.11 6.22001 25.11 6.20001 25.11 6.19001C25.12 6.12001 25.11 6.05001 25.09 5.99001C25.09 5.98001 25.09 5.96001 25.09 5.95001C25.09 5.95001 25.09 5.95001 25.09 5.94001C25.09 5.94001 25.09 5.92001 25.08 5.91001C25.08 5.89001 25.06 5.87001 25.05 5.85001C25.05 5.83001 25.03 5.82001 25.03 5.81001V5.79001L23.19 3.24001C23.08 3.09001 22.92 3.01001 22.73 3.01001H13.23C13.23 3.01001 13.13 3.01001 13.09 3.03001C13.08 3.03001 13.06 3.04001 13.05 3.05001C13.02 3.06001 12.99 3.07001 12.96 3.09001C12.94 3.09001 12.93 3.11001 12.91 3.12001C12.89 3.14001 12.86 3.16001 12.84 3.18001C12.83 3.19001 12.81 3.21001 12.8 3.22001C12.79 3.24001 12.78 3.24001 12.77 3.25001L10.93 5.81001C10.93 5.81001 10.89 5.87001 10.88 5.91001C10.88 5.91001 10.87 5.92001 10.87 5.93001C10.83 6.04001 10.82 6.15001 10.84 6.26001C10.84 6.26001 10.84 6.28001 10.85 6.29001C10.85 6.33001 10.87 6.36001 10.89 6.40001C10.89 6.40001 10.89 6.40001 10.89 6.41001C10.89 6.42001 10.91 6.44001 10.92 6.45001C10.94 6.48001 10.96 6.51001 10.99 6.54001C10.99 6.54001 10.99 6.54001 10.99 6.55001L14.72 10.05C8.50004 11.84 4.92004 18.33 6.71004 24.55C8.50004 30.77 14.99 34.35 21.21 32.56C27.43 30.77 31.01 24.28 29.22 18.06C28.1 14.19 25.08 11.17 21.21 10.05L21.24 10.03ZM19.75 9.89001L21.2 6.79001L21.25 6.69001H23.16L19.74 9.89001H19.75ZM15.98 6.69001H20.01L17.99 10.99L15.97 6.69001H15.98ZM26.05 21.29C26.05 25.74 22.44 29.35 17.99 29.35C13.54 29.35 9.93004 25.74 9.93004 21.29C9.93004 16.84 13.54 13.23 17.99 13.23C22.44 13.23 26.04 16.84 26.05 21.29ZM22.74 4.53001L23.49 5.57001H21.99L22.74 4.53001ZM21.64 4.13001L21.02 4.99001L20.8 5.30001L19.54 4.18001L19.48 4.13001H21.65H21.64ZM17.99 4.32001L19.31 5.48001L19.41 5.57001H16.57L17.99 4.32001ZM16.51 4.13001L15.72 4.82001L15.18 5.30001L14.34 4.13001H16.51ZM13.25 4.53001L14 5.57001H12.5L13.25 4.53001ZM12.83 6.69001H14.74L14.79 6.79001L16.25 9.89001L12.83 6.69001ZM18 31.88C12.15 31.88 7.41004 27.14 7.41004 21.29C7.41004 16.32 10.87 12.01 15.73 10.94L17.03 12.15C11.99 12.69 8.34004 17.21 8.88004 22.26C9.42004 27.31 13.94 30.95 18.99 30.41C24.03 29.87 27.68 25.35 27.14 20.3C26.68 16 23.29 12.61 18.99 12.15L20.29 10.94C26 12.19 29.62 17.84 28.36 23.55C27.29 28.41 22.99 31.87 18.01 31.87L18 31.88Z" fill="#BB892C"/>
</svg>
