<svg width="36" height="36" viewBox="0 0 36 36" fill="none" xmlns="http://www.w3.org/2000/svg">
<path d="M21.46 20.8601H20.14C19.05 18.1701 16.02 18.1101 14.85 18.0801C12.87 18.0401 12.61 16.7101 12.59 16.1501C12.58 15.8501 12.33 15.6101 12.03 15.6101H11.96C8.2 15.6101 6.15 18.5201 5.74 20.8601H5.12C4.23 20.8601 3.51 21.5801 3.5 22.4701C3.5 23.3201 4.16 24.0301 5.01 24.0801L6.07 29.9801L6.16 30.4801L6.53 32.5301C6.58 32.8001 6.81 32.9901 7.08 32.9901H19.43C19.7 32.9901 19.93 32.8001 19.98 32.5301L20.35 30.4801L20.44 29.9801L21.5 24.0801C22.39 24.0501 23.09 23.3001 23.06 22.4101C23.03 21.5401 22.32 20.8501 21.45 20.8501L21.46 20.8601ZM11.53 16.7401C11.78 17.9501 12.74 19.1601 14.82 19.2001C16.4 19.2301 18.07 19.4701 18.89 20.8601H6.88C7.35 18.6101 9.24 16.9301 11.53 16.7401ZM18.97 31.8701H7.55L7.38 30.9501H19.13L18.97 31.8701ZM19.53 28.7401L19.33 29.8301H7.18L6.98 28.7401L6.51 26.1401H19.99L19.52 28.7401H19.53ZM20.2 25.0201H6.32L6.15 24.1001H20.37L20.2 25.0201ZM21.46 22.9801H5.11C4.84 22.9801 4.62 22.7501 4.63 22.4701C4.63 22.2101 4.85 21.9901 5.11 21.9901H21.46C21.73 21.9901 21.96 22.2001 21.97 22.4701C21.97 22.7401 21.76 22.9701 21.49 22.9801C21.49 22.9801 21.47 22.9801 21.46 22.9801Z" fill="#BB892C"/>
<path d="M26.23 14.4701L28.48 10.9901C28.58 10.8401 28.6 10.6401 28.53 10.4701L27.59 8.17006L25.61 3.35006C25.49 3.06006 25.16 2.93006 24.88 3.04006C24.59 3.16006 24.46 3.49006 24.57 3.77006L26.33 8.07006L25.81 8.28006L24.05 3.98006C23.93 3.69006 23.6 3.56006 23.32 3.67006C23.03 3.79006 22.9 4.12006 23.01 4.40006L24.77 8.70006L24.25 8.91006L22.49 4.61006C22.38 4.32006 22.05 4.18006 21.76 4.29006C21.47 4.40006 21.33 4.73006 21.44 5.02006C21.44 5.02006 21.44 5.02006 21.44 5.03006L23.2 9.33006L22.68 9.54006L20.92 5.24006C20.8 4.95006 20.47 4.82006 20.18 4.94006C19.9 5.06006 19.77 5.38006 19.88 5.66006L21.64 9.96006L21.12 10.1701L19.36 5.87006C19.25 5.58006 18.92 5.44006 18.63 5.55006C18.34 5.66006 18.2 5.99006 18.31 6.28006C18.31 6.28006 18.31 6.28006 18.31 6.29006L20.07 10.5901L19.55 10.8001L17.79 6.50006C17.67 6.21006 17.34 6.08006 17.06 6.19006C16.77 6.31006 16.64 6.64006 16.75 6.92006L18.51 11.2201L17.99 11.4301L16.23 7.13006C16.11 6.84006 15.78 6.71006 15.5 6.82006C15.21 6.94006 15.08 7.27006 15.19 7.55006L17.17 12.3701L18.12 14.6701C18.19 14.8401 18.34 14.9701 18.52 15.0101L22.56 15.9101L29.84 32.0701C30.06 32.5901 30.58 32.9301 31.14 32.9401C31.31 32.9401 31.49 32.9101 31.65 32.8401C32.35 32.5401 32.68 31.7401 32.4 31.0301L26.23 14.4101V14.4701ZM31.22 31.8701C31.07 31.9201 30.91 31.8401 30.86 31.6901L23.46 15.2601C23.39 15.1001 23.24 14.9801 23.07 14.9401L19.04 14.0501L18.42 12.5401L19.46 12.1101L21.02 11.4701L22.58 10.8301L24.14 10.1901L26.75 9.12006L27.37 10.6301L25.13 14.1001C25.03 14.2501 25.01 14.4301 25.08 14.6001L31.35 31.5001C31.41 31.6401 31.35 31.8001 31.22 31.8701Z" fill="#BB892C"/>
</svg>
