<svg width="36" height="36" viewBox="0 0 36 36" fill="none" xmlns="http://www.w3.org/2000/svg">
<path d="M16.1901 25.3601C15.2401 24.9701 14.1601 25.1901 13.4201 25.9001C13.3201 25.9901 13.2301 26.0901 13.1601 26.2001C13.0201 26.3801 12.9101 26.5801 12.8201 26.7901C12.5301 27.5101 12.5801 28.3301 12.9601 29.0101C13.3501 29.7001 14.0201 30.1801 14.8001 30.3101C14.9401 30.3301 15.0801 30.3501 15.2201 30.3501C16.6501 30.3501 17.8101 29.1801 17.8001 27.7501C17.8001 26.7001 17.1601 25.7501 16.1801 25.3601H16.1901ZM16.4301 28.5801C16.1201 29.0501 15.5501 29.3001 15.0001 29.2001C14.2001 29.0701 13.6501 28.3201 13.7801 27.5201C13.8001 27.4101 13.8301 27.3101 13.8701 27.2001C13.9201 27.0801 13.9801 26.9701 14.0601 26.8701C14.0601 26.8701 14.0701 26.8501 14.0801 26.8401C14.1201 26.7901 14.1601 26.7401 14.2101 26.6901C14.7901 26.1301 15.7201 26.1401 16.2801 26.7301C16.7601 27.2301 16.8301 27.9901 16.4401 28.5701L16.4301 28.5801Z" fill="#BB892C"/>
<path d="M9.00999 16.13C7.75999 15.43 6.18999 15.88 5.48999 17.13C4.88999 18.2 5.12999 19.55 6.05999 20.35C6.64999 20.86 7.43999 21.08 8.19999 20.94C8.42999 20.9 8.63999 20.83 8.84999 20.73C8.96999 20.68 9.08999 20.61 9.19999 20.54C10.39 19.74 10.7 18.13 9.89999 16.95C9.66999 16.61 9.36999 16.33 9.00999 16.13ZM8.56999 19.61C8.50999 19.65 8.44999 19.69 8.37999 19.72C8.25999 19.78 8.13999 19.82 8.01999 19.84C7.21999 19.98 6.45999 19.45 6.31999 18.66C6.19999 17.98 6.56999 17.31 7.19999 17.05C7.37999 16.98 7.56999 16.94 7.76999 16.94C8.01999 16.94 8.25999 17 8.47999 17.13C9.18999 17.52 9.43999 18.41 9.04999 19.12C8.93999 19.32 8.77999 19.5 8.57999 19.63L8.56999 19.61Z" fill="#BB892C"/>
<path d="M32.4701 15.61C32.3501 15.53 32.2001 15.49 32.0501 15.52L17.5301 18.13L23.0101 4.56C23.1301 4.27 22.9901 3.95 22.7001 3.83C20.2501 2.84 17.4601 4.02 16.4701 6.47L12.9301 15.24C12.4401 16.44 12.6001 17.81 13.3701 18.86L12.2601 19.06C12.6301 16.58 10.9301 14.27 8.46007 13.9C6.39007 13.59 4.38007 14.73 3.59007 16.66C2.98007 18.16 3.20007 19.87 4.17007 21.17C5.18007 22.57 6.93007 23.23 8.61007 22.84H8.64007L12.6501 22.11L11.0701 26.03C10.3501 27.6 10.6401 29.44 11.8001 30.71C12.6801 31.69 13.9401 32.26 15.2601 32.27C15.5401 32.27 15.8201 32.24 16.1001 32.19C18.5601 31.73 20.1901 29.37 19.7301 26.91C19.4501 25.39 18.4101 24.11 16.9701 23.53C16.5101 23.34 16.0201 23.23 15.5201 23.21L16.0401 21.93C16.7601 22.76 17.8101 23.24 18.9201 23.25C19.1401 23.25 19.3601 23.23 19.5801 23.19L28.8901 21.51C31.4901 21.05 33.2201 18.56 32.7601 15.96C32.7301 15.81 32.6501 15.68 32.5301 15.6L32.4701 15.61ZM13.9601 15.68L17.5001 6.9C18.1701 5.22 19.9701 4.28 21.7401 4.7L16.2301 18.36L14.6501 18.64C13.8201 17.9 13.5401 16.71 13.9701 15.67L13.9601 15.68ZM16.5001 24.6C18.2501 25.31 19.0901 27.29 18.3801 29.04C17.9401 30.12 16.9901 30.9 15.8401 31.12C14.6301 31.33 13.3901 30.9 12.5701 29.97C11.7101 29.02 11.5101 27.65 12.0501 26.49L13.9001 21.9L14.8501 21.73L14.0801 23.64C13.9601 23.93 14.1001 24.25 14.3901 24.37C14.4901 24.41 14.6001 24.42 14.7101 24.4H14.7501C14.7501 24.4 14.8201 24.38 14.8601 24.38C15.4101 24.32 15.9701 24.4 16.4801 24.61L16.5001 24.6ZM31.0001 18.92C30.4501 19.72 29.6001 20.26 28.6401 20.43L19.3301 22.11C18.1801 22.31 17.0301 21.74 16.4901 20.7C16.3901 20.51 16.2001 20.39 15.9901 20.39C15.9601 20.39 15.9301 20.39 15.8901 20.39L15.6801 20.43L14.3801 20.66L8.37007 21.74C8.37007 21.74 8.33007 21.74 8.32007 21.75C7.09007 22.03 5.81007 21.55 5.07007 20.52C4.33007 19.53 4.16007 18.23 4.61007 17.09C5.32007 15.35 7.32007 14.51 9.06007 15.23C10.1401 15.67 10.9201 16.63 11.1201 17.78C11.2201 18.32 11.1901 18.88 11.0201 19.41C11.0201 19.43 11.0001 19.46 10.9901 19.48C10.9701 19.52 10.9601 19.56 10.9501 19.6C10.8501 19.89 11.0001 20.21 11.2901 20.32C11.3801 20.35 11.4801 20.36 11.5801 20.34L31.6601 16.73C31.6801 17.51 31.4501 18.28 31.0001 18.92Z" fill="#BB892C"/>
</svg>
