<svg width="36" height="36" viewBox="0 0 36 36" fill="none" xmlns="http://www.w3.org/2000/svg">
<path d="M9.23 26.7199C9.12 26.6099 8.99001 26.5099 8.85 26.4299C8.35 26.1499 7.74 26.1299 7.23 26.3899C6.37 26.8199 6.02 27.8599 6.45 28.7199C6.88 29.5799 7.92 29.9299 8.78 29.4999C8.95 29.4199 9.1 29.3099 9.23 29.1699C9.36 29.0399 9.47 28.8899 9.55 28.7199C9.81 28.1999 9.79 27.5899 9.51 27.0899C9.43 26.9499 9.34 26.8299 9.23 26.7099V26.7199Z" fill="#BB892C"/>
<path d="M32.4399 30.1299H30.1399C29.0299 30.1299 28.1299 29.2299 28.1199 28.1099V27.9399C28.1199 26.2999 26.7899 24.9799 25.1599 24.9799H24.5099C22.8699 24.9799 21.5499 26.3099 21.5499 27.9399V28.1099C21.5499 29.2199 20.6499 30.1199 19.5299 30.1299H12.6199L31.8399 14.6999C33.0599 13.7199 33.2499 11.9399 32.2799 10.7299L31.6199 9.90991C31.4299 9.66991 31.0699 9.62991 30.8299 9.81991L30.5399 10.0499L29.6399 8.92991C29.4499 8.68991 29.0899 8.64991 28.8499 8.83991L20.7899 15.3099C20.5499 15.4999 20.5099 15.8599 20.6999 16.0999L21.5999 17.2099L11.9899 24.9199C11.7099 24.5399 11.3699 24.2099 10.9899 23.9199L18.6999 14.3099L19.8099 15.2099C20.0499 15.3999 20.4099 15.3699 20.5999 15.1199L27.0699 7.05991C27.2599 6.81991 27.2299 6.45991 26.9799 6.26991L25.8599 5.36991L26.0899 5.07991C26.2799 4.83991 26.2399 4.48991 25.9999 4.28991L25.1799 3.62991C23.9599 2.65991 22.1899 2.84991 21.2099 4.06991L5.64986 23.5299C3.20986 24.8299 2.28986 27.8599 3.58986 30.2999C4.45986 31.9299 6.15986 32.9499 7.99986 32.9499C9.32986 32.9499 10.5999 32.4199 11.5399 31.4799C11.6099 31.4099 11.6799 31.3299 11.7499 31.2599H19.5299C21.2599 31.2599 22.6699 29.8499 22.6699 28.1199V27.9499C22.6699 26.9299 23.4899 26.1099 24.5099 26.1099H25.1599C26.1799 26.1099 26.9999 26.9299 26.9999 27.9499V28.1199C26.9999 29.8499 28.4099 31.2599 30.1399 31.2599H32.4399C32.7499 31.2599 32.9999 31.0099 32.9999 30.6999C32.9999 30.3899 32.7499 30.1399 32.4399 30.1399V30.1299ZM25.8699 6.81991L20.1099 13.9999L19.4299 13.4499L22.8699 9.15991L25.1899 6.26991L25.8699 6.81991ZM22.1299 4.80991C22.7199 4.07991 23.7899 3.95991 24.5199 4.54991L24.8999 4.85991L24.6799 5.13991L18.2099 13.1999L10.0499 23.3699C9.26986 23.0199 8.41986 22.8799 7.56986 22.9599L22.1199 4.80991H22.1299ZM11.4799 29.6799C11.2999 30.0499 11.0499 30.3899 10.7599 30.6799C10.0299 31.4099 9.03986 31.8199 8.00986 31.8199C5.86986 31.8199 4.12986 30.0799 4.12986 27.9299C4.12986 25.7899 5.86986 24.0499 8.01986 24.0499C8.68986 24.0499 9.33986 24.2199 9.91986 24.5499C10.5399 24.8999 11.0499 25.4099 11.3999 26.0299C12.0399 27.1499 12.0699 28.5199 11.4799 29.6699V29.6799ZM29.1299 10.0799L29.6799 10.7599L25.6399 13.9999L22.4999 16.5199L21.9499 15.8399L29.1299 10.0699V10.0799ZM22.7499 17.7499L30.8099 11.2799L31.0899 11.0499L31.3999 11.4299C31.9899 12.1599 31.8699 13.2299 31.1399 13.8199L12.9899 28.3899C13.0699 27.5399 12.9299 26.6899 12.5799 25.9099L22.7499 17.7499Z" fill="#BB892C"/>
</svg>
