<svg width="36" height="36" viewBox="0 0 36 36" fill="none" xmlns="http://www.w3.org/2000/svg">
<path d="M10.2101 7.76001C8.34008 7.76001 6.83008 9.27001 6.83008 11.14C6.83008 13.01 8.34008 14.52 10.2101 14.52C12.0801 14.52 13.5901 13.01 13.5901 11.14C13.5901 9.27001 12.0801 7.76001 10.2101 7.76001ZM10.2101 13.39C8.96008 13.39 7.95008 12.38 7.95008 11.13C7.95008 9.88001 8.96008 8.87001 10.2101 8.87001C11.4601 8.87001 12.4701 9.88001 12.4701 11.13C12.4701 12.38 11.4601 13.39 10.2101 13.39Z" fill="#BB892C"/>
<path d="M32.3 5.44994C31.87 5.24994 31.37 5.30994 31 5.60994L29.83 6.56994C26.12 6.05994 10.78 3.93994 10.2 3.93994C6.21999 3.93994 2.99999 7.15994 2.98999 11.1299C2.98999 14.3599 5.13999 17.1999 8.24999 18.0699L9.82999 26.0899C10.05 27.4099 11.16 28.3999 12.5 28.4499C12.8 30.7199 14.89 32.3199 17.16 32.0199C19.22 31.7499 20.77 29.9799 20.76 27.8999V24.0999C20.76 23.0699 21.59 22.2299 22.62 22.2299C23.65 22.2299 24.49 23.0599 24.49 24.0899V27.8899C24.49 30.1799 26.35 32.0399 28.64 32.0399H29.99C30.3 32.0399 30.55 31.7899 30.55 31.4799C30.55 31.1699 30.3 30.9199 29.99 30.9199H28.64C26.97 30.9199 25.61 29.5599 25.61 27.8899V24.0899C25.61 22.4399 24.27 21.0999 22.62 21.0999C20.97 21.0999 19.63 22.4399 19.63 24.0899V27.8899C19.63 29.5599 18.27 30.9199 16.6 30.9199C15.08 30.9199 13.79 29.7899 13.6 28.2799C14.9 27.8099 15.68 26.4699 15.44 25.1099L13.96 17.8699C19.16 17.1799 28.24 15.9299 29.83 15.7099L31 16.6699C31.52 17.0999 32.29 17.0199 32.72 16.4999C32.9 16.2799 33 16.0099 33 15.7299V6.55994C33 6.08994 32.73 5.65994 32.3 5.45994V5.44994ZM14.34 25.3299C14.51 26.2699 13.88 27.1599 12.94 27.3299C12 27.4999 11.11 26.8699 10.94 25.9299C10.94 25.9099 10.94 25.8999 10.94 25.8799L9.44999 18.2999C9.69999 18.3299 9.95999 18.3399 10.21 18.3399C10.32 18.3399 10.61 18.3099 12.86 18.0199L14.35 25.3199L14.34 25.3299ZM29.44 14.6399C27.23 14.9399 18.07 16.2099 13.22 16.8499C11.36 17.0899 10.34 17.2199 10.2 17.2299C9.74999 17.2299 9.29999 17.1799 8.85999 17.0799C5.57999 16.3399 3.52999 13.0799 4.26999 9.80994C4.89999 7.03994 7.35999 5.06994 10.2 5.06994C10.77 5.08994 21.84 6.59994 29.45 7.64994V14.6499L29.44 14.6399ZM31.87 15.7299C31.87 15.7799 31.83 15.8299 31.77 15.8299C31.75 15.8299 31.73 15.8299 31.71 15.8099L30.56 14.8699V7.41994L31.71 6.47994C31.71 6.47994 31.78 6.44994 31.81 6.46994C31.85 6.47994 31.87 6.51994 31.87 6.55994V15.7399V15.7299Z" fill="#BB892C"/>
</svg>
