<svg width="36" height="36" viewBox="0 0 36 36" fill="none" xmlns="http://www.w3.org/2000/svg">
<path d="M26.1698 20.33H25.8298V18.01C25.8298 17.18 25.1598 16.51 24.3298 16.51H7.2198C6.3898 16.51 5.7198 17.18 5.7198 18.01V20.33H5.3798C4.6398 20.33 4.0498 20.93 4.0498 21.66V29.23C4.0498 31.62 5.9898 33.55 8.3698 33.55H23.1798C25.5698 33.55 27.4998 31.61 27.4998 29.23V21.66C27.4998 20.92 26.8998 20.33 26.1698 20.33ZM6.8498 18.01C6.8498 17.8 7.0198 17.63 7.2298 17.63H24.3398C24.5498 17.63 24.7198 17.8 24.7198 18.01V20.33H6.8498V18.01ZM26.3798 29.23C26.3798 31 24.9498 32.43 23.1798 32.43H8.3698C6.5998 32.43 5.1698 31 5.1698 29.23V21.66C5.1698 21.54 5.2598 21.45 5.3798 21.45H26.1598C26.2798 21.45 26.3698 21.54 26.3698 21.66V29.23H26.3798Z" fill="#BB892C"/>
<path d="M29.6102 3.40995H20.8302C20.5302 2.81995 19.9202 2.44995 19.2502 2.44995H10.5502C9.89022 2.44995 9.28022 2.81995 8.97022 3.40995H8.05022C6.76022 3.40995 5.72021 4.44995 5.72021 5.73995V6.04995C5.72021 7.33995 6.76022 8.37995 8.05022 8.37995H8.77022V9.59995C8.77022 10.94 9.86021 12.02 11.2002 12.02C11.4702 12.02 11.7302 11.97 11.9802 11.89C12.9702 11.55 13.6202 10.61 13.6002 9.56995C13.6002 8.85995 14.1802 8.27995 14.8902 8.27995C15.6002 8.27995 16.1802 8.85995 16.1802 9.56995V12.41C16.1702 13.74 17.2002 14.83 18.5302 14.9H18.6002C19.9302 14.9 21.0202 13.82 21.0202 12.49V8.38995H29.6002C30.8902 8.38995 31.9302 7.34995 31.9302 6.05995V5.74995C31.9302 4.45995 30.8902 3.41995 29.6002 3.41995L29.6102 3.40995ZM8.77022 7.25995H8.05022C7.38022 7.25995 6.84022 6.71995 6.84022 6.04995V5.73995C6.84022 5.06995 7.38022 4.52995 8.05022 4.52995H8.77022V7.25995ZM19.9002 7.81995V12.49C19.9002 13.21 19.3202 13.78 18.6002 13.78C18.5902 13.78 18.5802 13.78 18.5602 13.78C17.8402 13.73 17.2902 13.13 17.3102 12.41V9.56995C17.3102 8.54995 16.6702 7.63995 15.7102 7.29995C15.1902 7.10995 14.6102 7.10995 14.0902 7.29995C14.0902 7.29995 14.0902 7.29995 14.0802 7.29995C13.1202 7.64995 12.4802 8.57995 12.4902 9.59995C12.4902 10.15 12.1602 10.63 11.6402 10.82C10.9602 11.06 10.2202 10.71 9.98021 10.03C9.93021 9.88995 9.90021 9.73995 9.90021 9.59995V4.21995C9.90021 3.85995 10.1902 3.56995 10.5502 3.56995H19.2502C19.6102 3.56995 19.9002 3.85995 19.9002 4.21995V7.81995ZM30.8202 6.04995C30.8202 6.71995 30.2802 7.25995 29.6102 7.25995H21.0302V4.52995H29.6102C30.2802 4.52995 30.8202 5.06995 30.8202 5.73995V6.04995Z" fill="#BB892C"/>
<path d="M22.1099 23.3701H9.43988C9.12988 23.3701 8.87988 23.6201 8.87988 23.9301V29.3201C8.87988 29.6301 9.12988 29.8801 9.43988 29.8801H22.1099C22.4199 29.8801 22.6699 29.6301 22.6699 29.3201V23.9301C22.6699 23.6201 22.4199 23.3701 22.1099 23.3701ZM21.5499 28.7601H9.99988V24.4901H21.5499V28.7601Z" fill="#BB892C"/>
</svg>
